<svg id="logo" xmlns="http://www.w3.org/2000/svg" width="1.6in" height="0.7in" viewBox="0 0 118.7 48.3">
  <title>logo</title>
  <path d="M18.9,40.7l-.5.3a1.8,1.8,0,0,1-.5.7c-.5.2-1-.6-1-.9s1.8-10.6,2.7-13c-.1-.3,0-.6.1-.6a5.3,5.3,0,0,1,1.4.6c.2.2,1.5,5.7,2.5,7.2.5-.1,2-4.8,3.1-6.5a1.4,1.4,0,0,1,.2-.6c.7-.8,1.4.2,1.8,1.2s1,5.9,1.1,6.2l1,1.2c0,.3-.4,1-.6,1a1.1,1.1,0,0,1-1.1-.3,46.2,46.2,0,0,0-1.5-7.4c-.1-.3-.3-.7-.4-.3s-2.7,6.3-2.7,6.4-.1.6-.3.6a1,1,0,0,1-1.4-.3.3.3,0,0,1-.1-.2c-.8-1.8-1.5-5.6-2.4-7.1a44.7,44.7,0,0,0-2,9.5A4.6,4.6,0,0,1,18.9,40.7Z" transform="translate(0)"/>
  <path d="M35,26.8a3.9,3.9,0,0,1,.2,1.5,8.8,8.8,0,0,0,1.7,3.5c.2.3.4.1.6-.4a9,9,0,0,0,.2-5.4.6.6,0,0,1-.2-.7l.6-.4c.1-.1.7.2,1,.5a.8.8,0,0,1-.2.4c.4.6,1.9,2.8,2.4,2.6S43.1,22.7,43,21c.1-.1.3.1.3.4.2,3-.7,7.2-1.4,7.7l-.3.2a7.4,7.4,0,0,1-3-2.1c-.5-.9-.1-.1-.1.1a16.1,16.1,0,0,1-.1,4.9c-.2.5-.3.6-.5.7s-.1.4-.4.5-.9.1-1.4-.7-2.1-4.3-2.8-5.9S34.9,26.5,35,26.8Z" transform="translate(0)"/>
  <path d="M42.4,17.2c.5-.5,1.7-.7,2-.3a1.9,1.9,0,0,1,.2.7,3.7,3.7,0,0,0-1.8.5,1.8,1.8,0,0,0,0,2.5,8.6,8.6,0,0,0,3.6,2.3,2.4,2.4,0,0,1,.9.6.9.9,0,0,1,0,1c-.2.2-2.4,1-3.2,1.4s-.2-.1-.2-.3a8.2,8.2,0,0,0,2-1.2c.3-.2.3-.2.1-.4s-3.2-1.7-4.4-3.1-1.1-2.4,0-3.3S42.1,17.1,42.4,17.2Z" transform="translate(0)"/>
  <path d="M45,11.4c-.2-.4.9-1.2,1.1-1.3h.8a2.4,2.4,0,0,1,0,1.2A1.7,1.7,0,0,1,45,11.4Zm2.1,3.3c.2.1.1.3.3.3a1,1,0,0,1,.8.7c.4.3.5,2.5,1.1,4.1s.8,1.3.9.5a39.1,39.1,0,0,1,2.9-8.1c.1-.2.6,0,.4.5a22.2,22.2,0,0,0-2.4,8.8c-.2.5-1.9.9-2,.1s-1.5-5.3-2.6-6.3A.6.6,0,0,1,47.1,14.7Z" transform="translate(0)"/>
  <path d="M54.3,15.9c.5,1.6,1.5,1.6,2.3,1.2s1.5-1.9,1.9-3.2a.5.5,0,0,1,.2-.8c.1,0,.3.2.2.7a4.6,4.6,0,0,1-1.6,3.5c-.1.2-.1.3-.2.4s-3.2.5-3.8-1.3a5.9,5.9,0,0,1,.3-4.5c.1-.2-.2-.2-.1-.4s1.3-1.6,1.7-1.4.1-.2.3-.2a1.4,1.4,0,0,1,1.2.6.8.8,0,0,1-.3,1,.8.8,0,0,1-1-.1C54.5,11.7,53.8,14.3,54.3,15.9Z" transform="translate(0)"/>
  <path d="M66.9,0c.1,0,1,.2,1,.5a15.4,15.4,0,0,1-.4,3c0,.3-.1.2-.4.3a53.2,53.2,0,0,0-.4,6.9c0,.4.3.4.4.2,1.1-2.2,3.3-5.8,3.6-5.8a1.5,1.5,0,0,1,.9.2c.3.2.2.8.5,1.1s0,3.8.4,4.5a30,30,0,0,0,4.2-5.7.5.5,0,0,1,.5.3v.3c-1.3,1.9-3.4,6.1-4.9,6.4s-.7-.4-.6-1.1-.2-4-.7-4.6S68.7,9.4,68,10.9a1.8,1.8,0,0,1-.5,1.6c-.1.2-.2.3-.4.3s-.3.5-.5.5a.5.5,0,0,1-.5-.3,1.3,1.3,0,0,1-.1-.6c-.4-5.5.9-9.4.4-12A.7.7,0,0,1,66.9,0Z" transform="translate(0)"/>
  <path d="M78.2,3.4c.2,0,.4.3.4.5A5.7,5.7,0,0,1,81.4,5a1.8,1.8,0,0,1,1.1,1.7c-.1.7-2.4,3.2-3.5,4a1.9,1.9,0,0,1-2,.6c-1.5-.4-1.4-1.9-1.2-2.8S77,6,76.9,3.9C76.9,3.5,77.9,3.4,78.2,3.4Zm.3,1.7c-.5,1-2.3,3.5-1.6,5.2s1.2.1,1.9-.5a9.2,9.2,0,0,0,2.3-2.9,1.2,1.2,0,0,0-.5-1.6h-.3A5.5,5.5,0,0,1,78.5,5.1Z" transform="translate(0)"/>
  <path d="M89.8,4.7a.6.6,0,0,1-.7.2c-.2,0-.3-.3-.4-.3a1.1,1.1,0,0,0-1.3.9h0c-.3,1,.3,3.8-.2,5.3s-1.3.9-2,.8l-.3-.2h-.3a4.5,4.5,0,0,1-2.3-2c-.3-.5-.6-1.3.1-1.5a4.3,4.3,0,0,0,2.5,2.6c.4.2,1.1.1,1.2-.2s-.1-5,.3-5.7l.2-.3V4c.3-.5,1.2-1.7,1.8-1.5S89.8,4.6,89.8,4.7Zm5.9.7-.7.9c-.2.2-.3,0-.4.2A15.7,15.7,0,0,0,91,11.7c-.1.3-.2.4.2.4a31.3,31.3,0,0,0,8.4-3.6c.3.1.6.6.1.8A63,63,0,0,1,91.3,13c-.5.1-1.9.1-1.5-.8a55.6,55.6,0,0,1,4.6-7A19.3,19.3,0,0,0,91,5.1h-.8c-.4,0-.3-1.1.4-1s-.1.2.8.1l3.5.3C95.9,3.2,97,2,98.1.8A.9.9,0,0,1,98.8,2h0a1.3,1.3,0,0,1-.7.6c-.5.7-1.2,1.4-1.8,2.1l2.7.7c.5.2.5.4.2.6Z" transform="translate(0)"/>
  <path d="M100.5,9.4c0,.2-.2.2-.2.4a1.4,1.4,0,0,1-.2,1c-.3.4-2.7,2-3.9,3.1s-.8,1-.2,1.2a23.6,23.6,0,0,0,7.5-.7c.3.1.2.4-.3.6s-7.1,1.2-7.8.7-1.2-1-.6-1.5,4.8-3.9,4.9-5.2S100.5,9.2,100.5,9.4Zm3-3.6c.2-.3,1.3.2,1.5.3s.1.4,0,.5-.7.8-.9.7A1.2,1.2,0,0,1,103.5,5.8Z" transform="translate(0)"/>
  <path d="M106.7,13.7c.1,0-.1.5-.3.6h-.3c-.3,0-4.6,2.6-4.6,3.1s4.9-1.4,7.7-1.2l.7.2c.7.4.2,1.3-.9,2s-.4,0-.5.2a11.3,11.3,0,0,0-2.7,2.2c-.3.3-.3.6.2.7a20.6,20.6,0,0,0,7-.2c.1.1.1.5-.1.5a20.4,20.4,0,0,1-7.4.4c-1.3-.3-1.6-1.1-1.1-1.8s.3,0,.4-.2,2.6-1.9,3.8-3,0-.2-.3-.3c-2.6-.2-5.5,1-7.6,1.8-.2.1-1.1-.4-.9-.9a3.5,3.5,0,0,1,.8-1.3,30,30,0,0,1,5.4-3.3A1.8,1.8,0,0,1,106.7,13.7Z" transform="translate(0)"/>
  <path d="M102.9,30.1a2.8,2.8,0,0,0,2.9,1.3c3.2-.4,7.5-3.9,10.2-6.6.5-.5.3-.6-.3-.4a15.6,15.6,0,0,1-4.8,1.4c-.3,0-.2-.2-.5-.1s-1.7-1.6-.9-2.6,5.3-1.8,7-.9,1.3.1,1.5.4.1.1.1.2l.5.2c.3.3,0,.8-.4,1.2-4,3.9-8.1,7.4-12.1,7.9a3.4,3.4,0,0,1-3.6-1.7c-.2-.5-.2,0-.4-.5s-1.4-3.1-.6-4.5S100.9,27.4,102.9,30.1Zm7.3-6.1c-.4.4,0,.8.9.7a13.5,13.5,0,0,0,4.5-1.1c.4-.2.4-.4.1-.5l-.7-.7A6,6,0,0,0,110.2,24Z" transform="translate(0)"/>
  <path d="M11,48.3c-3,0-6.5-1.3-9.4-5.5A10,10,0,0,1,.3,34.9a11.2,11.2,0,0,1,5.8-7.3c2.3-1.3,3.9-.9,4.8-.3a8.9,8.9,0,0,1,2.7,6A6.5,6.5,0,0,1,10.7,39l-.5-.9a5.5,5.5,0,0,0,2.4-4.8c0-2.3-.9-4.3-2.2-5.1a3.5,3.5,0,0,0-3.8.2,10,10,0,0,0-5.3,6.7,9.1,9.1,0,0,0,1.2,7.2c5.3,7.9,12.4,4.3,13.2,3.9L25.8,41l6-3.1c.7-.3,4.8-2.8,9.7-5.7,6.7-4,15.1-9,17.2-10.1a115.8,115.8,0,0,1,14.9-6.5A43.8,43.8,0,0,1,85,13.8,20.1,20.1,0,0,1,95.9,17a36.2,36.2,0,0,1,10.6,11.1l-.9.5A34.3,34.3,0,0,0,95.3,17.8a20.9,20.9,0,0,0-10.3-3,41.6,41.6,0,0,0-11.1,1.8A101.7,101.7,0,0,0,59.1,23L42,33.1l-9.7,5.7-6.1,3.1-10,5.2A11.7,11.7,0,0,1,11,48.3Z" transform="translate(0)"/>
</svg>
