<?xml version="1.0" encoding="utf-8"?>
<!-- Generator: Adobe Illustrator 23.0.3, SVG Export Plug-In . SVG Version: 6.00 Build 0)  -->
<svg version="1.1" id="logo" xmlns="http://www.w3.org/2000/svg" xmlns:xlink="http://www.w3.org/1999/xlink" x="0px" y="0px"
	 viewBox="0 0 115.2 50.4" style="enable-background:new 0 0 115.2 50.4;" xml:space="preserve">
<style type="text/css">
	.st0{fill:#FFFFFF;}
</style>
<title>logo</title>
<path class="st0" d="M18.3,41.3l-0.5,0.3c-0.1,0.3-0.3,0.5-0.5,0.7c-0.5,0.2-1-0.6-1-0.9s1.7-10.3,2.6-12.6c-0.1-0.3,0-0.6,0.1-0.6
	c0.5,0.1,0.9,0.3,1.4,0.6c0.2,0.2,1.5,5.5,2.4,7c0.5-0.1,1.9-4.7,3-6.3c0-0.2,0.1-0.4,0.2-0.6c0.7-0.8,1.4,0.2,1.7,1.2
	c0.4,1,1,5.7,1.1,6l1,1.2c0,0.3-0.4,1-0.6,1c-0.4,0.1-0.8,0-1.1-0.3c-0.3-2.4-0.8-4.8-1.5-7.2c-0.1-0.3-0.3-0.7-0.4-0.3
	s-2.6,6.1-2.6,6.2s-0.1,0.6-0.3,0.6c-0.4,0.3-1,0.2-1.3-0.3c0,0,0,0,0,0c-0.1,0-0.1-0.1-0.1-0.2c-0.8-1.7-1.5-5.4-2.3-6.9
	c-1,3-1.6,6.1-1.9,9.2C18.1,39.7,18.3,40.5,18.3,41.3z"/>
<path class="st0" d="M34,27.8c0.2,0.5,0.2,1,0.2,1.5c0.3,1.2,0.9,2.4,1.6,3.4c0.2,0.3,0.4,0.1,0.6-0.4c0.6-1.7,0.7-3.5,0.2-5.2
	c-0.2-0.2-0.3-0.4-0.2-0.7l0.6-0.4c0.1-0.1,0.7,0.2,1,0.5c0,0.1-0.1,0.3-0.2,0.4c0.4,0.6,1.8,2.7,2.3,2.5s1.7-5.5,1.6-7.2
	c0.1-0.1,0.3,0.1,0.3,0.4c0.2,2.9-0.7,7-1.4,7.5l-0.3,0.2c-1.1-0.4-2.1-1.1-2.9-2c-0.5-0.9-0.1-0.1-0.1,0.1c0.2,1.6,0.2,3.2-0.1,4.8
	c-0.2,0.5-0.3,0.6-0.5,0.7s-0.1,0.4-0.4,0.5s-0.9,0.1-1.4-0.7c-0.5-0.8-2-4.2-2.7-5.7C31.6,26.2,33.9,27.5,34,27.8z"/>
<path class="st0" d="M41.1,18.5c0.5-0.5,1.6-0.7,1.9-0.3c0.1,0.2,0.2,0.4,0.2,0.7c-0.6,0-1.2,0.2-1.7,0.5c-0.7,0.7-0.7,1.7,0,2.4
	c1,1,2.2,1.8,3.5,2.2c0.3,0.1,0.6,0.3,0.9,0.6c0.2,0.3,0.2,0.7,0,1c-0.2,0.2-2.3,1-3.1,1.4s-0.2-0.1-0.2-0.3
	c0.7-0.3,1.4-0.7,1.9-1.2c0.3-0.2,0.3-0.2,0.1-0.4c-0.2-0.2-3.1-1.6-4.3-3c-1.2-1.4-1.1-2.3,0-3.2C41.4,18,40.9,18.4,41.1,18.5z"/>
<path class="st0" d="M43.7,12.8c-0.2-0.4,0.9-1.2,1.1-1.3h0.8c0.1,0.4,0.1,0.8,0,1.2C45,13.1,44.3,13.2,43.7,12.8z M45.7,16
	c0.2,0.1,0.1,0.3,0.3,0.3c0.4,0.1,0.7,0.3,0.8,0.7c0.4,0.3,0.5,2.4,1.1,4s0.8,1.3,0.9,0.5c0.6-2.7,1.6-5.4,2.8-7.9
	c0.1-0.2,0.6,0,0.4,0.5c-1.4,2.7-2.2,5.6-2.3,8.5c-0.2,0.5-1.8,0.9-1.9,0.1c-0.1-0.8-1.5-5.1-2.5-6.1C45.1,16.3,45.4,16,45.7,16z"/>
<path class="st0" d="M52.7,17.2c0.5,1.6,1.5,1.6,2.2,1.2s1.5-1.8,1.8-3.1c-0.2-0.2-0.2-0.5,0-0.7c0,0,0.1-0.1,0.2-0.1
	c0.1,0,0.3,0.2,0.2,0.7c0,1.3-0.6,2.5-1.6,3.4c-0.1,0.2-0.1,0.3-0.2,0.4s-3.1,0.5-3.7-1.3c-0.5-1.4-0.4-3,0.3-4.4
	c0.1-0.2-0.2-0.2-0.1-0.4c0.1-0.2,1.3-1.6,1.6-1.4c0.4,0.2,0.1-0.2,0.3-0.2c0.5,0,0.9,0.2,1.2,0.6c0.2,0.4,0,0.8-0.3,1
	c-0.3,0.2-0.7,0.2-1-0.1C52.9,13.1,52.2,15.6,52.7,17.2z"/>
<path class="st0" d="M64.9,1.8c0.1,0,1,0.2,1,0.5c0,1-0.2,2-0.4,2.9c0,0.3-0.1,0.2-0.4,0.3c-0.3,2.2-0.4,4.5-0.4,6.7
	c0,0.4,0.3,0.4,0.4,0.2c1.1-2.1,3.2-5.6,3.5-5.6c0.3,0,0.6,0,0.9,0.2C69.8,7.1,69.7,7.7,70,8c0.3,0.3,0,3.7,0.4,4.4
	c1.6-1.7,2.9-3.5,4.1-5.5c0.2,0,0.4,0.1,0.5,0.3v0.3c-1.3,1.8-3.3,5.9-4.8,6.2c-1.5,0.3-0.7-0.4-0.6-1.1c0.1-0.7-0.2-3.9-0.7-4.5
	c-0.5-0.6-2.2,2.8-2.9,4.3c0.1,0.6-0.1,1.1-0.5,1.6c-0.1,0.2-0.2,0.3-0.4,0.3s-0.3,0.5-0.5,0.5c-0.2,0-0.4-0.1-0.5-0.3
	c-0.1-0.2-0.1-0.4-0.1-0.6c-0.4-5.3,0.9-9.1,0.4-11.6C64.5,2,64.7,1.8,64.9,1.8z"/>
<path class="st0" d="M75.9,5.1c0.2,0,0.4,0.3,0.4,0.5c1,0.1,1.9,0.5,2.7,1.1c0.7,0.3,1.1,0.9,1.1,1.6c-0.1,0.7-2.3,3.1-3.4,3.9
	c-0.5,0.6-1.2,0.8-1.9,0.6c-1.5-0.4-1.4-1.8-1.2-2.7c0.2-0.9,1.2-2.4,1.1-4.5C74.6,5.2,75.6,5.1,75.9,5.1z M76.2,6.7
	c-0.5,1-2.2,3.4-1.6,5s1.2,0.1,1.8-0.5c0.9-0.8,1.7-1.7,2.2-2.8c0.3-0.6,0.1-1.3-0.5-1.6h-0.3C77.3,6.9,76.8,6.9,76.2,6.7z"/>
<path class="st0" d="M87.2,6.3c-0.2,0.2-0.4,0.3-0.7,0.2c-0.2,0-0.3-0.3-0.4-0.3c-0.6-0.1-1.1,0.3-1.3,0.8c0,0,0,0,0,0l0,0
	c-0.3,1,0.3,3.7-0.2,5.1c-0.5,1.5-1.3,0.9-1.9,0.8l-0.3-0.2h-0.3c-0.9-0.4-1.7-1.1-2.2-1.9c-0.3-0.5-0.6-1.3,0.1-1.5
	c0.4,1.2,1.3,2.1,2.4,2.5c0.4,0.2,1.1,0.1,1.2-0.2c0.1-0.3-0.1-4.9,0.3-5.5L84,5.9V5.6c0.3-0.5,1.2-1.6,1.7-1.5S87.2,6.2,87.2,6.3z
	 M92.9,7l-0.7,0.9c-0.2,0.2-0.3,0-0.4,0.2c-1.5,1.4-2.7,3.1-3.5,5c-0.1,0.3-0.2,0.4,0.2,0.4c2.9-0.8,5.6-1.9,8.2-3.5
	c0.3,0.1,0.6,0.6,0.1,0.8c-2.6,1.4-5.4,2.6-8.2,3.6c-0.5,0.1-1.8,0.1-1.5-0.8c1.3-2.4,2.8-4.6,4.5-6.8c-1.1-0.1-2.2-0.2-3.3-0.1
	h-0.8c-0.4,0-0.3-1.1,0.4-1c0.7,0.1-0.1,0.2,0.8,0.1l3.4,0.3c1-1.3,2-2.4,3.1-3.6c0.5,0.1,0.8,0.5,0.7,1c0,0.1,0,0.1,0,0.2l0,0
	c-0.1,0.3-0.4,0.5-0.7,0.6c-0.5,0.7-1.2,1.4-1.7,2L96.1,7c0.5,0.2,0.5,0.4,0.2,0.6L92.9,7z"/>
<path class="st0" d="M97.5,10.9c0,0.2-0.2,0.2-0.2,0.4c0.1,0.3,0,0.7-0.2,1c-0.3,0.4-2.6,1.9-3.8,3c-1.2,1.1-0.8,1-0.2,1.2
	c2.4,0.2,4.9-0.1,7.3-0.7c0.3,0.1,0.2,0.4-0.3,0.6s-6.9,1.2-7.6,0.7c-0.7-0.5-1.2-1-0.6-1.5c0.6-0.5,4.7-3.8,4.8-5
	C96.9,9.2,97.5,10.7,97.5,10.9z M100.4,7.4c0.2-0.3,1.3,0.2,1.5,0.3s0.1,0.4,0,0.5c-0.1,0.1-0.7,0.8-0.9,0.7
	C100.5,8.6,100.2,8,100.4,7.4z"/>
<path class="st0" d="M103.6,15.1c0.1,0-0.1,0.5-0.3,0.6H103c-0.3,0-4.5,2.5-4.5,3c0,0.5,4.8-1.4,7.5-1.2l0.7,0.2
	c0.7,0.4,0.2,1.3-0.9,1.9s-0.4,0-0.5,0.2c-1,0.6-1.9,1.3-2.6,2.1c-0.3,0.3-0.3,0.6,0.2,0.7c2.3,0.3,4.6,0.3,6.8-0.2
	c0.1,0.1,0.1,0.5-0.1,0.5c-2.4,0.6-4.8,0.7-7.2,0.4c-1.3-0.3-1.6-1.1-1.1-1.7c0.5-0.7,0.3,0,0.4-0.2c0.1-0.2,2.5-1.8,3.7-2.9
	s0-0.2-0.3-0.3c-2.5-0.2-5.3,1-7.4,1.7c-0.2,0.1-1.1-0.4-0.9-0.9c0.2-0.5,0.4-0.9,0.8-1.3c1.6-1.2,3.4-2.3,5.2-3.2
	C103.1,14.7,103.4,14.8,103.6,15.1z"/>
<path class="st0" d="M99.9,31c0.6,1,1.7,1.5,2.8,1.3c3.1-0.4,7.3-3.8,9.9-6.4c0.5-0.5,0.3-0.6-0.3-0.4c-1.5,0.7-3,1.2-4.7,1.4
	c-0.3,0-0.2-0.2-0.5-0.1c-0.3,0.1-1.6-1.6-0.9-2.5s5.1-1.7,6.8-0.9s1.3,0.1,1.5,0.4c0.2,0.3,0.1,0.1,0.1,0.2l0.5,0.2
	c0.3,0.3,0,0.8-0.4,1.2c-3.9,3.8-7.9,7.2-11.7,7.7c-1.4,0.3-2.8-0.4-3.5-1.6c-0.2-0.5-0.2,0-0.4-0.5c-0.2-0.5-1.4-3-0.6-4.4
	C99.3,25.1,97.9,28.4,99.9,31z M107,25.1c-0.4,0.4,0,0.8,0.9,0.7c1.5-0.1,3-0.5,4.4-1.1c0.4-0.2,0.4-0.4,0.1-0.5l-0.7-0.7
	C109.9,23.3,108.2,23.9,107,25.1z"/>
<path class="st0" d="M10.7,48.6c-2.9,0-6.3-1.3-9.1-5.3c-1.5-2.3-1.9-5-1.3-7.7C1,32.6,3.1,30,5.9,28.5c2.2-1.3,3.8-0.9,4.7-0.3
	c1.6,1.5,2.5,3.6,2.6,5.8c0.1,2.2-1,4.3-2.8,5.5l-0.5-0.9c1.5-1,2.4-2.8,2.3-4.7c0-2.2-0.9-4.2-2.1-4.9c-1.2-0.7-2.6-0.6-3.7,0.2
	c-2.6,1.3-4.5,3.7-5.1,6.5c-0.6,2.4-0.2,4.9,1.2,7c5.1,7.7,12,4.2,12.8,3.8l9.8-5l5.8-3c0.7-0.3,4.7-2.7,9.4-5.5
	c6.5-3.9,14.7-8.7,16.7-9.8c4.7-2.4,9.5-4.5,14.5-6.3c3.6-1.1,7.3-1.7,11.1-1.7c3.8,0,7.4,1.1,10.6,3.1c4.2,2.8,7.7,6.5,10.3,10.8
	l-0.9,0.5c-2.5-4.2-5.9-7.8-10-10.5c-3-1.8-6.5-2.8-10-2.9c-3.7,0.1-7.3,0.7-10.8,1.7c-4.9,1.7-9.7,3.8-14.4,6.2l-16.6,9.8l-9.4,5.5
	l-5.9,3l-9.7,5C14.2,48.2,12.4,48.6,10.7,48.6z"/>
</svg>
